REM MD5 3324adf1dea4b1f78aa478f688803137
FILE "Wizardry - Dimguil (Japan).bin" BINARY
  TRACK 01 MODE2/2352
    INDEX 01 00:00:00
  TRACK 02 AUDIO
    INDEX 00 36:18:69
    INDEX 01 36:20:69
  TRACK 03 AUDIO
    INDEX 00 40:04:54
    INDEX 01 40:06:54
REM LEADOUT 44:29:10
